HIERARCHY
ROOT pelvis
{
	OFFSET 0.000000 0.000000 0.000000
	CHANNELS 6 Xposition Yposition Zposition Zrotation Xrotation Yrotation
	JOINT lfemur
	{
		OFFSET 11.446000 0.000000 0.000000
		CHANNELS 3 Zrotation Xrotation Yrotation
		JOINT ltibia
		{
			OFFSET 0.000000 -42.030400 0.000000
			CHANNELS 3 Zrotation Xrotation Yrotation
			JOINT lfoot
			{
				OFFSET 0.000000 -39.930200 0.000000
				CHANNELS 3 Zrotation Xrotation Yrotation
				JOINT ltoes
				{
					OFFSET 0.000000 0.000000 11.775800
					CHANNELS 3 Zrotation Xrotation Yrotation
					End Site
					{
					    OFFSET 0.000000 0.000000 5.000000
					}
				}
			}
		}
	}
	JOINT rfemur
	{
		OFFSET -11.446000 0.000000 0.000000
		CHANNELS 3 Zrotation Xrotation Yrotation
		JOINT rtibia
		{
			OFFSET 0.000000 -42.030400 0.000000
			CHANNELS 3 Zrotation Xrotation Yrotation
			JOINT rfoot
			{
				OFFSET 0.000000 -39.930200 0.000000
				CHANNELS 3 Zrotation Xrotation Yrotation
				JOINT rtoes
				{
					OFFSET 0.000000 0.000000 11.775800
					CHANNELS 3 Zrotation Xrotation Yrotation
					End Site
					{
					    OFFSET 0.000000 0.000000 5.000000
					}
				}
			}
		}
	}
	JOINT thorax
	{
		OFFSET 0.000000 11.255600 -5.000000
		CHANNELS 3 Zrotation Xrotation Yrotation
		JOINT head
		{
			OFFSET 0.000000 43.799300 0.000000
			CHANNELS 3 Zrotation Xrotation Yrotation
			End Site
			{
			    OFFSET 0.000000 5.000000 0.000000
			}
		}
		JOINT lclavicle
		{
			OFFSET 0.000000 39.863000 0.000000
			CHANNELS 3 Zrotation Xrotation Yrotation
			JOINT lhumerus
			{
				OFFSET 17.380600 4.958300 0.000000
				CHANNELS 3 Zrotation Xrotation Yrotation
				JOINT lradius
				{
					OFFSET 0.000000 -27.561300 0.000000
					CHANNELS 3 Zrotation Xrotation Yrotation
					JOINT lhand
					{
						OFFSET 0.000000 -26.933000 0.000000
						CHANNELS 3 Zrotation Xrotation Yrotation
						End Site
						{
						    OFFSET 0.000000 -5.000000 0.000000
						}
					}
				}
			}
		}
		JOINT rclavicle
		{
			OFFSET 0.000000 39.863000 0.000000
			CHANNELS 3 Zrotation Xrotation Yrotation
			JOINT rhumerus
			{
				OFFSET -17.380600 4.958300 0.000000
				CHANNELS 3 Zrotation Xrotation Yrotation
				JOINT rradius
				{
					OFFSET 0.000000 -27.561300 0.000000
					CHANNELS 3 Zrotation Xrotation Yrotation
					JOINT rhand
					{
						OFFSET 0.000000 -26.933000 0.000000
						CHANNELS 3 Zrotation Xrotation Yrotation
						End Site
						{
						    OFFSET 0.000000 -5.000000 0.000000
						}
					}
				}
			}
		}
	}
}
MOTION
Frames:	6
Frame Time:	0.0333333
74.006100 86.531000 3.528600 11.269430 -0.430689 -95.256678 -7.061178 -17.531215 -0.751370 0.000000 28.256990 -0.000000 0.000000 -4.936354 10.658686 -0.000000 -1.358107 -0.000000 5.779920 -21.012010 -5.217324 -0.000000 15.425400 0.000000 0.000000 -0.374209 1.481930 -0.000000 -29.547551 -0.000000 -0.296391 12.211382 -0.280214 8.464451 22.972796 14.985752 -19.017173 -0.000000 2.772408 38.794032 6.244383 5.317485 -0.000000 -19.453526 -45.445866 2.553827 -6.189858 -0.000000 24.930659 0.000000 4.782612 -37.231320 7.204417 -7.154154 0.000001 -30.473475 27.650577 4.358217 -4.909635 0.000000 
74.163700 86.223500 3.560400 11.417324 -0.346400 -95.679849 -6.819430 -17.291927 0.172379 -0.000000 27.277211 -0.000000 0.000000 -6.003637 10.760421 -0.000000 -1.318151 0.000000 6.094415 -22.479055 -3.949460 -0.000000 17.759780 0.000000 0.000000 -0.342572 1.686097 0.000000 -29.547620 -0.000000 -0.584529 12.431674 -0.344866 9.069237 22.480790 15.282803 -18.882379 -0.000000 2.993054 41.376810 8.941288 10.712511 0.000001 -14.581024 -48.886157 1.261310 -5.674389 0.000000 25.047290 0.000000 4.618838 -37.312665 7.692729 -7.928031 0.000004 -30.054495 27.592995 4.091747 -4.819406 -0.000000 
74.303700 85.959700 3.695100 11.358364 -0.478090 -95.542645 -7.121448 -17.314743 -0.901803 -0.000000 27.570536 -0.000000 0.000000 -6.763033 10.416993 0.000000 -1.307053 -0.000000 5.774577 -23.779434 -3.911143 -0.000000 20.086277 0.000000 0.000000 -0.591231 2.152851 0.000000 -29.546759 -0.000000 -1.132739 13.097085 -0.584800 9.886190 21.625745 15.152248 -18.747589 -0.000000 3.154184 43.763918 10.806990 16.873829 0.000000 -10.344100 -52.371527 0.207848 -4.764501 0.000000 25.191012 0.000000 4.348581 -37.324161 8.089742 -8.502840 -0.000001 -29.810398 27.677922 4.301134 -4.891322 -0.000000 
74.564000 85.707500 3.915800 11.743333 -0.748559 -94.695641 -7.955457 -17.980456 -2.536572 -0.000000 27.884644 -0.000000 0.000000 -7.227584 10.682181 -0.000000 -1.279212 0.000000 5.055704 -25.736905 -4.190562 0.000000 22.758250 -0.000000 0.000000 -1.035165 2.001554 -0.000000 -29.545451 0.000000 -1.627048 13.466329 -0.996721 10.718783 20.323816 14.205573 -18.627856 0.000000 3.447415 45.992187 12.119671 19.241565 0.000000 -8.155821 -54.545096 -0.840616 -4.271610 0.000000 24.959190 -0.000000 4.295366 -36.933808 9.003946 -8.889273 -0.000001 -29.793866 26.645677 5.477549 -5.289701 0.000000 
74.588900 85.508200 4.155000 11.951963 -1.152387 -93.638451 -9.010915 -17.582976 -4.306230 -0.000000 26.942498 -0.000000 0.000000 -7.611702 11.127496 -0.000000 -1.250866 -0.000000 3.895828 -27.533256 -5.040791 -0.000000 25.830714 -0.000000 -0.000000 -1.491443 1.894399 0.000000 -29.544703 -0.000000 -2.269144 13.947706 -1.227618 11.794268 19.131013 12.994613 -18.206099 -0.000000 4.054711 47.423516 13.089793 18.280199 -0.000000 -8.380011 -53.451365 -1.619631 -3.812088 -0.000000 24.836882 -0.000000 4.107423 -36.616074 10.170271 -8.758419 0.000000 -30.104642 26.473305 6.002693 -5.468741 -0.000000 
74.460500 85.315400 4.427200 12.276078 -1.863902 -92.988455 -9.908019 -17.394010 -4.597295 -0.000000 26.230437 0.000000 0.000000 -7.696420 10.636079 -0.000000 -1.246274 -0.000000 2.392827 -29.989019 -5.810107 -0.000000 30.230451 0.000000 0.000000 -1.971844 2.099051 -0.000000 -29.547244 0.000000 -3.176164 13.905040 -0.905311 12.701133 18.417101 11.741835 -18.097081 0.000000 4.346358 48.364859 13.675791 18.516559 0.000001 -8.614734 -53.764205 -1.078379 -3.793445 -0.000000 24.955737 -0.000000 4.070520 -36.564875 11.397741 -9.060543 -0.000000 -29.674539 27.197500 5.982179 -5.459204 -0.000000 
